HIERARCHY
ROOT Hips
{
	OFFSET 0.000000 100.481300 0.000000
	CHANNELS 6 Xposition Yposition Zposition Xrotation Yrotation Zrotation 
	JOINT Spine
	{
		OFFSET -0.279200 12.230698 -2.892100
		CHANNELS 3 Xrotation Yrotation Zrotation
		JOINT Spine1
		{
			OFFSET -0.232667 10.192268 -1.242267
			CHANNELS 3 Xrotation Yrotation Zrotation
			JOINT Spine1_split
			{
				OFFSET -0.232667 10.192268 -1.242267
				CHANNELS 3 Xrotation Yrotation Zrotation
				JOINT Spine2
				{
					OFFSET -0.232667 10.192268 -1.242267
					CHANNELS 3 Xrotation Yrotation Zrotation
					JOINT Neck
					{
						OFFSET -0.418800 17.814194 8.416900
						CHANNELS 3 Xrotation Yrotation Zrotation
						JOINT Head
						{
							OFFSET 0.000000 7.031097 3.806800
							CHANNELS 3 Xrotation Yrotation Zrotation
							JOINT HeadTop_End
							{
								OFFSET 0.000000 24.646606 12.978600
								CHANNELS 3 Xrotation Yrotation Zrotation
								End Site
								{
									OFFSET 0.000000 0.000000 0.000000
								}
							}
						}
					}
					JOINT LeftShoulder
					{
						OFFSET 8.476499 7.247704 -3.868750
						CHANNELS 3 Xrotation Yrotation Zrotation
						JOINT LeftShoulder_split
						{
							OFFSET 8.476499 7.247704 -3.868750
							CHANNELS 3 Xrotation Yrotation Zrotation
							JOINT LeftArm
							{
								OFFSET 9.308998 -2.777710 0.208600
								CHANNELS 3 Xrotation Yrotation Zrotation
								JOINT LeftForeArm
								{
									OFFSET 29.972298 0.000000 0.000000
									CHANNELS 3 Xrotation Yrotation Zrotation
									JOINT LeftHand
									{
										OFFSET 26.026505 0.000000 0.000000
										CHANNELS 3 Xrotation Yrotation Zrotation
										JOINT LeftHandThumb1
										{
											OFFSET 12.240501 -7.147949 9.207150
											CHANNELS 3 Xrotation Yrotation Zrotation
											JOINT LeftHandThumb2
											{
												OFFSET 4.138618 -2.389435 2.389433
												CHANNELS 3 Xrotation Yrotation Zrotation
												JOINT LeftHandThumb3
												{
													OFFSET 2.726913 -1.574387 1.574386
													CHANNELS 3 Xrotation Yrotation Zrotation
													JOINT LeftHandThumb4
													{
														OFFSET 3.941010 -2.275345 2.275342
														CHANNELS 3 Xrotation Yrotation Zrotation
														End Site
														{
															OFFSET 0.000000 0.000000 0.000000
														}
													}
												}
											}
										}
										JOINT LeftHandIndex1
										{
											OFFSET 24.424698 -1.985611 5.953459
											CHANNELS 3 Xrotation Yrotation Zrotation
											JOINT LeftHandIndex2
											{
												OFFSET 6.426697 0.000000 0.000000
												CHANNELS 3 Xrotation Yrotation Zrotation
												JOINT LeftHandIndex3
												{
													OFFSET 5.337898 0.000000 0.000000
													CHANNELS 3 Xrotation Yrotation Zrotation
													JOINT LeftHandIndex4
													{
														OFFSET 4.409401 0.000000 0.000000
														CHANNELS 3 Xrotation Yrotation Zrotation
														End Site
														{
															OFFSET 0.000000 0.000000 0.000000
														}
													}
												}
											}
										}
										JOINT LeftHandMiddle1
										{
											OFFSET 23.810104 0.000000 0.000000
											CHANNELS 3 Xrotation Yrotation Zrotation
											JOINT LeftHandMiddle2
											{
												OFFSET 7.176498 0.000000 0.000000
												CHANNELS 3 Xrotation Yrotation Zrotation
												JOINT LeftHandMiddle3
												{
													OFFSET 6.774902 0.000000 0.000000
													CHANNELS 3 Xrotation Yrotation Zrotation
													JOINT LeftHandMiddle4
													{
														OFFSET 5.403328 0.000000 0.000000
														CHANNELS 3 Xrotation Yrotation Zrotation
														End Site
														{
															OFFSET 0.000000 0.000000 0.000000
														}
													}
												}
											}
										}
										JOINT LeftHandRing1
										{
											OFFSET 22.908401 -0.839279 -6.020567
											CHANNELS 3 Xrotation Yrotation Zrotation
											JOINT LeftHandRing2
											{
												OFFSET 6.337502 0.000000 0.000000
												CHANNELS 3 Xrotation Yrotation Zrotation
												JOINT LeftHandRing3
												{
													OFFSET 5.779297 0.000000 0.000000
													CHANNELS 3 Xrotation Yrotation Zrotation
													JOINT LeftHandRing4
													{
														OFFSET 4.965698 0.000000 0.000000
														CHANNELS 3 Xrotation Yrotation Zrotation
														End Site
														{
															OFFSET 0.000000 0.000000 0.000000
														}
													}
												}
											}
										}
										JOINT LeftHandPinky1
										{
											OFFSET 20.037003 -1.530319 -10.950146
											CHANNELS 3 Xrotation Yrotation Zrotation
											JOINT LeftHandPinky2
											{
												OFFSET 5.254700 0.000000 0.000000
												CHANNELS 3 Xrotation Yrotation Zrotation
												JOINT LeftHandPinky3
												{
													OFFSET 4.810204 0.000000 0.000000
													CHANNELS 3 Xrotation Yrotation Zrotation
													JOINT LeftHandPinky4
													{
														OFFSET 3.647202 0.000000 0.000000
														CHANNELS 3 Xrotation Yrotation Zrotation
														End Site
														{
															OFFSET 0.000000 0.000000 0.000000
														}
													}
												}
											}
										}
									}
								}
							}
						}
					}
					JOINT RightShoulder
					{
						OFFSET -7.570500 7.247704 -3.868750
						CHANNELS 3 Xrotation Yrotation Zrotation
						JOINT RightShoulder_split
						{
							OFFSET -7.570500 7.247704 -3.868750
							CHANNELS 3 Xrotation Yrotation Zrotation
							JOINT RightArm
							{
								OFFSET -9.308998 -2.777710 0.208500
								CHANNELS 3 Xrotation Yrotation Zrotation
								JOINT RightForeArm
								{
									OFFSET -29.972300 0.000000 0.000000
									CHANNELS 3 Xrotation Yrotation Zrotation
									JOINT RightHand
									{
										OFFSET -26.026505 0.000000 0.000000
										CHANNELS 3 Xrotation Yrotation Zrotation
										JOINT RightHandThumb1
										{
											OFFSET -12.240601 -7.148026 9.207092
											CHANNELS 3 Xrotation Yrotation Zrotation
											JOINT RightHandThumb2
											{
												OFFSET -4.138618 -2.389435 2.389433
												CHANNELS 3 Xrotation Yrotation Zrotation
												JOINT RightHandThumb3
												{
													OFFSET -2.726974 -1.574417 1.574421
													CHANNELS 3 Xrotation Yrotation Zrotation
													JOINT RightHandThumb4
													{
														OFFSET -3.941010 -2.275345 2.275343
														CHANNELS 3 Xrotation Yrotation Zrotation
														End Site
														{
															OFFSET 0.000000 0.000000 0.000000
														}
													}
												}
											}
										}
										JOINT RightHandIndex1
										{
											OFFSET -24.424698 -1.985657 5.953444
											CHANNELS 3 Xrotation Yrotation Zrotation
											JOINT RightHandIndex2
											{
												OFFSET -6.426697 0.000000 0.000000
												CHANNELS 3 Xrotation Yrotation Zrotation
												JOINT RightHandIndex3
												{
													OFFSET -5.337898 0.000000 0.000000
													CHANNELS 3 Xrotation Yrotation Zrotation
													JOINT RightHandIndex4
													{
														OFFSET -4.409401 0.000000 0.000000
														CHANNELS 3 Xrotation Yrotation Zrotation
														End Site
														{
															OFFSET 0.000000 0.000000 0.000000
														}
													}
												}
											}
										}
										JOINT RightHandMiddle1
										{
											OFFSET -23.810097 0.000000 0.000000
											CHANNELS 3 Xrotation Yrotation Zrotation
											JOINT RightHandMiddle2
											{
												OFFSET -7.176498 0.000000 0.000000
												CHANNELS 3 Xrotation Yrotation Zrotation
												JOINT RightHandMiddle3
												{
													OFFSET -6.774902 0.000000 0.000000
													CHANNELS 3 Xrotation Yrotation Zrotation
													JOINT RightHandMiddle4
													{
														OFFSET -5.403328 0.000000 0.000000
														CHANNELS 3 Xrotation Yrotation Zrotation
														End Site
														{
															OFFSET 0.000000 0.000000 0.000000
														}
													}
												}
											}
										}
										JOINT RightHandRing1
										{
											OFFSET -22.908302 -0.839325 -6.020576
											CHANNELS 3 Xrotation Yrotation Zrotation
											JOINT RightHandRing2
											{
												OFFSET -6.337502 0.000000 0.000000
												CHANNELS 3 Xrotation Yrotation Zrotation
												JOINT RightHandRing3
												{
													OFFSET -5.779297 0.000000 0.000000
													CHANNELS 3 Xrotation Yrotation Zrotation
													JOINT RightHandRing4
													{
														OFFSET -4.965698 0.000000 0.000000
														CHANNELS 3 Xrotation Yrotation Zrotation
														End Site
														{
															OFFSET 0.000000 0.000000 0.000000
														}
													}
												}
											}
										}
										JOINT RightHandPinky1
										{
											OFFSET -20.037003 -1.530334 -10.950259
											CHANNELS 3 Xrotation Yrotation Zrotation
											JOINT RightHandPinky2
											{
												OFFSET -5.254700 0.000000 0.000000
												CHANNELS 3 Xrotation Yrotation Zrotation
												JOINT RightHandPinky3
												{
													OFFSET -4.810204 0.000000 0.000000
													CHANNELS 3 Xrotation Yrotation Zrotation
													JOINT RightHandPinky4
													{
														OFFSET -3.647202 0.000000 0.000000
														CHANNELS 3 Xrotation Yrotation Zrotation
														End Site
														{
															OFFSET 0.000000 0.000000 0.000000
														}
													}
												}
											}
										}
									}
								}
							}
						}
					}
				}
			}
		}
	}
	JOINT LeftUpLeg
	{
		OFFSET 15.427100 -6.655098 0.678600
		CHANNELS 3 Xrotation Yrotation Zrotation
		JOINT LeftLeg
		{
			OFFSET 4.081073 -39.591068 13.024000
			CHANNELS 3 Xrotation Yrotation Zrotation
			JOINT LeftFoot
			{
				OFFSET -4.081074 -37.707932 -15.979700
				CHANNELS 3 Xrotation Yrotation Zrotation
				JOINT LeftToeBase
				{
					OFFSET 5.346399 -15.068900 20.645000
					CHANNELS 3 Xrotation Yrotation Zrotation
					JOINT LeftToe_End
					{
						OFFSET 2.754700 0.931300 11.300900
						CHANNELS 3 Xrotation Yrotation Zrotation
						End Site
						{
							OFFSET 0.000000 0.000000 0.000000
						}
					}
				}
			}
		}
	}
	JOINT RightUpLeg
	{
		OFFSET -15.569500 -6.655098 0.678600
		CHANNELS 3 Xrotation Yrotation Zrotation
		JOINT RightLeg
		{
			OFFSET -4.081825 -39.591045 13.023800
			CHANNELS 3 Xrotation Yrotation Zrotation
			JOINT RightFoot
			{
				OFFSET 4.081824 -37.707954 -15.979600
				CHANNELS 3 Xrotation Yrotation Zrotation
				JOINT RightToeBase
				{
					OFFSET -5.346400 -15.068900 20.645000
					CHANNELS 3 Xrotation Yrotation Zrotation
					JOINT RightToe_End
					{
						OFFSET -2.754700 0.931300 11.300900
						CHANNELS 3 Xrotation Yrotation Zrotation
						End Site
						{
							OFFSET 0.000000 0.000000 0.000000
						}
					}
				}
			}
		}
	}
}
MOTION
Frames: 5
Frame Time: 0.016667
-2.355541 94.077682 -3.747761 1.173507 6.113285 6.281718 8.181351 -1.002844 6.037709 1.977285 -0.412824 1.344541 0.000000 0.000000 0.000000 1.971129 -0.404078 1.350292 1.471615 0.251577 3.770395 -5.997187 -13.685524 -0.924695 -0.000001 -0.000001 0.000002 0.635351 -5.283652 -12.880633 0.000000 0.000000 0.000000 5.726504 -4.951277 -42.398628 0.000011 -65.564386 0.000012 -5.370028 -8.061434 -58.939690 -7.220071 -16.942334 15.004570 8.206667 0.329526 4.976422 -0.103943 -18.233000 11.581010 -0.000002 -0.000000 -0.000002 -0.931693 -1.396878 -13.797129 1.148781 3.485799 -36.471011 0.124342 1.201802 -11.812875 -0.000001 0.000000 -0.000002 0.832895 5.259378 -29.649158 1.128739 3.458564 -36.139969 0.564538 2.511087 -25.337408 0.000000 0.000004 -0.000002 6.569937 12.601604 -38.071222 2.521125 4.813789 -55.264662 0.033464 0.626004 -6.120693 0.000001 -0.000001 0.000001 9.474791 25.638720 -47.960004 1.102901 3.422963 -35.709643 0.497497 2.364432 -23.761227 -0.000001 0.000001 0.000001 1.688120 19.320705 11.981018 0.000000 0.000000 0.000000 -17.246738 18.683089 60.973126 0.000693 95.131770 -0.000703 -19.139404 -6.743521 -4.913998 17.887504 49.319078 12.919702 30.991963 -39.602851 28.049271 11.489503 -46.546814 8.464857 -0.000001 -0.000001 0.000001 3.343360 -6.897280 53.623259 1.487408 -3.413768 47.076515 0.006956 -0.254485 3.125542 -0.000001 -0.000001 -0.000002 3.298255 -6.778206 63.367032 1.097398 -3.004787 40.118185 0.322999 -1.705782 21.442821 -0.000001 -0.000000 -0.000001 5.188519 -7.512441 67.475876 0.689928 -2.441242 31.557424 0.692955 -2.446201 31.628714 -0.000001 0.000000 -0.000001 0.768498 -22.546634 59.828912 1.001579 -2.887410 38.254134 0.497030 -2.095243 26.686469 -0.000000 0.000000 0.000001 -8.830770 6.028896 1.678856 16.185144 3.796921 -0.390361 -6.054146 1.520055 -6.323454 -2.517683 -0.000006 0.000001 -0.000000 0.000000 0.000000 -11.746827 -11.353740 -14.179512 24.078355 -0.185601 -1.740137 -13.347281 -8.691534 7.536844 -2.518105 -0.000012 0.000000 -0.000000 -0.000000 -0.000000 
-2.322781 94.070915 -3.695675 1.144091 6.044057 6.284811 8.146339 -1.151385 6.047491 1.971235 -0.454235 1.335347 0.000000 0.000000 0.000000 1.964732 -0.445019 1.341881 1.502343 0.283005 3.704584 -6.423702 -13.408006 -1.036771 0.000000 0.000000 -0.000000 0.638347 -5.316638 -12.830687 0.000000 0.000000 0.000000 5.804758 -5.004717 -42.414942 -0.000049 -65.564284 -0.000053 -5.414960 -8.062185 -59.000677 -7.220067 -16.942327 15.004570 8.205386 0.326292 4.976851 -0.100216 -18.247766 11.598967 0.000001 -0.000002 0.000001 -0.925464 -1.417190 -13.702033 1.148259 3.485086 -36.462186 0.124391 1.202115 -11.815999 -0.000002 0.000000 -0.000001 0.830611 5.255384 -29.604075 1.128872 3.458732 -36.142158 0.564999 2.512061 -25.347921 -0.000000 0.000001 -0.000001 6.563250 12.601807 -38.034544 2.517022 4.810941 -55.215762 0.033458 0.625908 -6.119609 -0.000001 -0.000002 0.000001 9.464115 25.640230 -47.933038 1.103969 3.424455 -35.727531 0.497440 2.364310 -23.759749 -0.000001 0.000000 -0.000001 1.742140 19.638220 11.894623 0.000000 0.000000 0.000000 -14.648411 20.367925 60.669176 0.000307 96.789948 -0.000297 -19.473465 -6.938350 -5.387765 16.983586 48.490433 13.131571 30.991994 -39.602851 28.049275 11.603359 -46.676932 8.513021 -0.000003 -0.000001 0.000003 3.357181 -6.907505 53.814671 1.499349 -3.424800 47.276674 0.007128 -0.258013 3.168993 -0.000001 0.000001 -0.000001 3.331216 -6.794224 63.393567 1.109710 -3.019324 40.352498 0.317803 -1.692531 21.267788 0.000000 0.000000 0.000003 5.186946 -7.514268 67.421870 0.696306 -2.451621 31.707326 0.698792 -2.455639 31.765502 0.000002 0.000000 -0.000000 0.773493 -22.549306 59.891449 0.988332 -2.870536 37.990308 0.502895 -2.106899 26.846952 0.000001 0.000001 -0.000001 -8.726875 6.057370 1.666478 16.197116 3.823045 -0.400239 -6.164277 1.521738 -6.268063 -2.495857 -0.000001 0.000000 -0.000000 0.000000 0.000000 -11.603074 -11.051625 -14.158586 24.078001 -0.393213 -1.735658 -13.371351 -8.739195 7.643961 -2.518105 -0.000010 -0.000000 -0.000000 -0.000001 -0.000000 
-2.289538 94.064575 -3.647299 1.110632 5.967902 6.271177 8.110414 -1.328487 6.054636 1.966686 -0.503289 1.325314 0.000000 0.000000 0.000000 1.959778 -0.493537 1.332815 1.524710 0.316483 3.633391 -6.840206 -13.129487 -1.161062 -0.000001 0.000000 -0.000000 0.638522 -5.362368 -12.762704 0.000000 0.000000 0.000000 5.906807 -5.087487 -42.408822 -0.000005 -65.558615 0.000017 -5.511698 -8.054027 -59.056432 -7.220068 -16.942332 15.004570 8.201859 0.319200 4.980775 -0.095901 -18.265802 11.621325 0.000001 -0.000001 0.000003 -0.919228 -1.438412 -13.606792 1.147730 3.484389 -36.453847 0.124458 1.202409 -11.818807 -0.000000 0.000000 -0.000001 0.828521 5.251726 -29.562903 1.128925 3.458813 -36.143264 0.565373 2.512837 -25.356497 -0.000004 -0.000002 -0.000001 6.558681 12.601990 -38.009217 2.513633 4.808598 -55.175405 0.033444 0.625809 -6.118591 0.000000 0.000001 -0.000001 9.456683 25.641271 -47.914334 1.106381 3.427809 -35.767607 0.497368 2.364130 -23.758215 -0.000001 -0.000001 0.000001 1.812172 19.996176 11.753376 0.000000 0.000000 0.000000 -12.150125 22.247779 60.206034 0.000052 98.202575 -0.000060 -19.507432 -7.108533 -5.826912 16.071971 47.646338 13.324350 30.992014 -39.602837 28.049282 11.720544 -46.810278 8.562889 0.000000 -0.000001 -0.000001 3.371446 -6.918005 54.010971 1.511625 -3.436087 47.481928 0.007344 -0.261650 3.213564 -0.000001 -0.000001 -0.000000 3.365040 -6.810612 63.420779 1.122386 -3.034165 40.592784 0.312521 -1.678897 21.088264 -0.000002 -0.000001 -0.000002 5.185267 -7.516140 67.366470 0.702888 -2.462261 31.861115 0.704849 -2.465331 31.905777 0.000001 0.000000 -0.000001 0.778642 -22.552042 59.955551 0.974802 -2.853188 37.719768 0.508961 -2.118844 27.011510 -0.000000 0.000001 -0.000002 -8.624955 6.081818 1.684602 16.206354 3.853121 -0.414025 -6.249802 1.525394 -6.276566 -2.463928 -0.000003 0.000002 -0.000000 0.000001 -0.000000 -11.450495 -10.747963 -14.119209 24.067420 -0.601088 -1.731203 -13.386419 -8.784797 7.747954 -2.518105 -0.000012 -0.000000 0.000000 -0.000000 -0.000000 
-2.250964 94.062134 -3.600581 1.084296 5.910546 6.245595 8.078486 -1.528928 6.056390 1.963648 -0.558698 1.313114 0.000000 0.000000 0.000000 1.956315 -0.548352 1.321720 1.539980 0.351072 3.559212 -7.224477 -12.849047 -1.292569 -0.000001 -0.000000 0.000001 0.637409 -5.414064 -12.664162 0.000000 0.000000 0.000000 6.031519 -5.194022 -42.395240 0.000018 -65.552071 0.000010 -5.622245 -8.057211 -59.067421 -7.220064 -16.942335 15.004568 8.194867 0.306796 4.986444 -0.091814 -18.279943 11.640758 -0.000001 -0.000001 0.000001 -0.913714 -1.457656 -13.524780 1.147221 3.483663 -36.444909 0.124515 1.202637 -11.821120 0.000000 0.000002 -0.000001 0.826837 5.248737 -29.529196 1.128998 3.458922 -36.144357 0.565679 2.513485 -25.363440 0.000000 -0.000004 0.000002 6.557025 12.602177 -37.999539 2.511945 4.807434 -55.155219 0.033430 0.625690 -6.117721 0.000001 -0.000002 -0.000000 9.453338 25.641751 -47.905796 1.108097 3.430165 -35.796222 0.497313 2.364012 -23.756757 0.000000 0.000001 0.000000 1.891717 20.393152 11.594526 0.000000 0.000000 0.000000 -9.757490 24.346242 59.504089 -0.000021 99.316954 0.000032 -19.132774 -7.232188 -6.153894 15.156350 46.791372 13.496831 30.992052 -39.602820 28.049309 11.840629 -46.946250 8.614355 0.000005 -0.000001 -0.000002 3.386105 -6.928652 54.211225 1.524205 -3.447545 47.691362 0.007546 -0.265338 3.259033 -0.000000 0.000001 -0.000001 3.399556 -6.827297 63.448551 1.135372 -3.049272 40.837957 0.307160 -1.664983 20.905008 0.000000 -0.000000 0.000000 5.183529 -7.518022 67.309971 0.709664 -2.473095 32.018103 0.710993 -2.475210 32.048856 0.000001 -0.000000 -0.000000 0.783924 -22.554837 60.020970 0.961107 -2.835417 37.443760 0.515206 -2.131009 27.179430 -0.000000 -0.000001 0.000001 -8.537148 6.108181 1.706046 16.210272 3.863790 -0.427153 -6.333219 1.525388 -6.270409 -2.425416 0.000005 -0.000000 -0.000000 0.000000 -0.000000 -11.288241 -10.441494 -14.071984 24.038335 -0.832237 -1.725985 -13.392410 -8.832620 7.863731 -2.518105 -0.000011 0.000000 0.000000 0.000002 0.000000 
-2.202003 94.062073 -3.560303 1.035987 5.848451 6.221908 8.051688 -1.747506 6.051484 1.960707 -0.619252 1.297408 0.000000 0.000000 0.000000 1.952975 -0.608264 1.307199 1.554709 0.385658 3.484318 -7.572360 -12.570903 -1.431678 -0.000000 -0.000000 0.000000 0.638615 -5.466736 -12.525828 0.000000 0.000000 0.000000 6.178442 -5.316449 -42.390958 -0.000009 -65.547167 -0.000024 -5.721599 -8.083216 -59.018749 -7.220066 -16.942330 15.004572 8.186016 0.286585 4.993259 -0.088235 -18.286416 11.653989 0.000000 -0.000004 -0.000001 -0.908702 -1.473414 -13.455696 1.146533 3.482728 -36.433704 0.124652 1.203332 -11.828135 0.000000 0.000000 -0.000004 0.825190 5.245856 -29.496759 1.129121 3.459100 -36.146509 0.565944 2.514041 -25.369390 0.000001 -0.000002 0.000001 6.557051 12.602402 -37.998852 2.511755 4.807295 -55.153026 0.033428 0.625609 -6.117055 -0.000001 0.000002 0.000000 9.452575 25.641850 -47.903945 1.107759 3.429722 -35.790779 0.497259 2.363893 -23.755499 0.000000 0.000000 0.000001 1.973431 20.822757 11.448874 0.000000 0.000000 0.000000 -7.453073 26.678277 58.483003 0.000151 100.113696 -0.000150 -18.399604 -7.375243 -6.326792 14.240131 45.930031 13.648382 30.992082 -39.602813 28.049319 11.962984 -47.084264 8.667125 0.000001 -0.000001 0.000001 3.401057 -6.939491 54.414594 1.537011 -3.459149 47.904010 0.007759 -0.269100 3.305214 0.000001 -0.000000 0.000003 3.434615 -6.844233 63.476780 1.148672 -3.064542 41.086921 0.301792 -1.650799 20.718942 0.000001 -0.000000 -0.000001 5.181700 -7.519934 67.252583 0.716536 -2.484082 32.177540 0.717298 -2.485203 32.194189 -0.000000 -0.000000 -0.000000 0.789313 -22.557683 60.087414 0.947282 -2.817298 37.163476 0.521556 -2.143344 27.349951 -0.000000 0.000001 -0.000001 -8.422783 6.138968 1.714067 16.212105 3.882948 -0.439328 -6.432458 1.524591 -6.227684 -2.383015 0.000001 -0.000003 0.000000 -0.000000 -0.000000 -11.104936 -10.131765 -14.032824 24.001196 -1.062868 -1.720742 -13.387421 -8.879801 7.987134 -2.518105 -0.000010 0.000000 0.000000 -0.000001 -0.000000 
